# xmcd
#
# Track frame offsets: 
#        150
#        21715
#        40798
#        57306
#        70898
#        87525
#        110488
#        127550
#        143471
#        155364
#        180102
#
# Disc length: 2582 seconds
#
# Revision: 0
# Processed by: cddbd v1.5.2PL0 Copyright (c) Steve Scherf et al.
# Submitted via: ExactAudioCopy v0.99pb5
#
DISCID=880a140b
DTITLE=Shawn Pittman - Meridian
DYEAR=2009
DGENRE=Blues
TTITLE0=Edge Of The World
TTITLE1=Fortune And Fame
TTITLE2=Make The World Stop Turnin
TTITLE3=Call Them How I See Them
TTITLE4=My Luck Has Changed
TTITLE5=No Such Of A Thing
TTITLE6=Mr. Dime Dropper
TTITLE7=Make People Dance
TTITLE8=Let's Blow This Joint
TTITLE9=High Maintenance Woman
TTITLE10=Hurricane
EXTD=
EXTT0=
EXTT1=
EXTT2=
EXTT3=
EXTT4=
EXTT5=
EXTT6=
EXTT7=
EXTT8=
EXTT9=
EXTT10=
PLAYORDER=
